<svg width="360" height="360" viewBox="0 0 360 360" fill="none" xmlns="http://www.w3.org/2000/svg">
<rect width="360" height="360" rx="75" fill="black"/>
<rect x="5" y="5" width="350" height="350" rx="70" stroke="white" stroke-width="10"/>
<mask id="mask0_9_51" style="mask-type:alpha" maskUnits="userSpaceOnUse" x="167" y="111" width="152" height="162">
<path d="M318.516 191.757C318.516 236.085 284.66 272.02 242.897 272.02C201.134 272.02 167.278 236.085 167.278 191.757C167.278 147.43 201.134 111.495 242.897 111.495C284.66 111.495 318.516 147.43 318.516 191.757Z" fill="#D9D9D9"/>
</mask>
<g mask="url(#mask0_9_51)">
<path d="M253.584 271.044C247.619 273.684 243.902 275.292 240.072 278.24C249.458 279.143 255.328 278.575 266.433 276.441C266.433 276.441 267.973 273.211 268.705 271.046C270.971 264.353 269.996 260.101 270.523 253.063C271.088 245.525 273.319 241.054 271.432 233.73C270.431 229.843 269.231 227.838 267.342 224.289C265.483 220.798 261.888 215.746 261.888 215.746V209.452C261.888 209.452 268.679 208.351 271.432 205.406C273.319 203.388 273.914 201.771 274.614 199.111C275.463 195.883 272.472 191.578 273.189 188.318C274.754 181.201 278.188 201.357 278.643 208.55L280.977 266.101L285.067 267.45C285.067 267.45 278.643 198.209 279.552 195.961C280.461 193.714 297.339 257.109 297.339 257.109L301.429 255.76L284.551 206.752C284.551 206.752 280.915 198.209 282.733 196.861C284.551 195.512 309.156 243.621 309.156 243.621L311.883 242.272C311.883 242.272 305.004 228.782 300.913 220.689C295.485 209.949 285.006 194.613 285.006 194.613L276.432 182.027C277.332 177.526 274.614 173.485 273.25 172.136C271.887 170.787 269.462 169.705 265.069 169.888C260.676 170.07 262.953 172.674 260.979 173.485C257.825 174.779 255.751 171.927 252.343 172.136C245.684 172.544 240.499 174.412 237.345 180.228C234.99 184.572 236.436 192.817 236.436 192.817C235.527 195.961 233.647 197.76 232.284 200.008C232.284 200.008 235.527 201.357 235.527 203.158C235.527 206.494 233.142 209.341 235.527 211.7C237.911 214.059 244.162 211.7 244.162 211.7C247.487 218.969 247.669 223.302 245.071 231.482L233.709 243.621V247.667C238.641 244.059 244.045 243.263 251.827 243.621C254.872 254.32 254.714 260.323 253.584 271.044Z" fill="white" stroke="white"/>
<path d="M229.933 261.389C231.098 268.31 234.937 278.653 234.937 278.653L221.743 276.381L198.995 263.66L179.887 243.216L173.973 227.769C173.973 227.769 173.47 218.886 175.338 213.685C176.572 210.246 177.546 208.303 179.887 205.507C182.229 202.711 187.167 200.055 187.167 200.055C187.167 200.055 188.388 196.605 190.806 194.149C194.484 195.823 196.373 196.99 198.995 200.055L199.183 200.282C202.91 204.793 205.057 207.392 208.55 212.776C213.886 220.67 216.053 224.892 219.469 232.312C218.193 224.514 217.093 220.238 214.464 212.776C214.464 212.776 211.502 212.66 210.369 211.413C208.818 209.705 208.941 207.319 210.369 205.507C211.967 203.479 215.876 206.816 215.701 207.014C215.701 207.014 216.382 207.968 216.364 209.004C216.348 209.945 216.284 211.413 216.284 211.413C221.782 220.578 224.022 225.965 226.748 235.947V243.216H229.023C229.023 243.216 228.753 254.381 229.933 261.389Z" fill="white"/>
<path d="M212.644 202.327C206.224 196.08 202.261 192.852 193.081 188.697L194.446 183.7V177.793L190.806 168.253C189.428 159.859 194.827 149.069 196.721 150.08C200.294 148.956 202.683 148.062 207.64 145.991C220.549 145.896 226.099 148.24 232.207 157.803V160.983L229.933 161.892L232.207 170.07L229.933 171.887L229.023 174.613C230.716 177.789 231.485 179.434 232.207 181.882C232.207 181.882 232.662 183.245 231.297 185.062C229.933 186.88 228.309 184.369 226.748 185.062C226.919 188.392 226.893 190.309 225.838 194.149L223.108 196.875L215.374 195.512L212.644 202.327Z" fill="white"/>
<path d="M229.933 261.389C231.098 268.31 234.937 278.653 234.937 278.653L221.743 276.381L198.995 263.66L179.887 243.216L173.973 227.769C173.973 227.769 173.47 218.886 175.338 213.685C176.572 210.246 177.546 208.303 179.887 205.507C182.229 202.711 187.167 200.055 187.167 200.055C187.167 200.055 188.388 196.605 190.806 194.149C194.484 195.823 196.373 196.99 198.995 200.055L199.183 200.282C202.91 204.793 205.057 207.392 208.55 212.776C213.886 220.67 216.053 224.892 219.469 232.312C218.193 224.514 217.093 220.238 214.464 212.776C214.464 212.776 211.502 212.66 210.369 211.413C208.818 209.705 208.941 207.319 210.369 205.507C211.967 203.479 215.876 206.816 215.701 207.014C215.701 207.014 216.382 207.968 216.364 209.004C216.348 209.945 216.284 211.413 216.284 211.413C221.782 220.578 224.022 225.965 226.748 235.947V243.216H229.023C229.023 243.216 228.753 254.381 229.933 261.389Z" stroke="white"/>
<path d="M212.644 202.327C206.224 196.08 202.261 192.852 193.081 188.697L194.446 183.7V177.793L190.806 168.253C189.428 159.859 194.827 149.069 196.721 150.08C200.294 148.956 202.683 148.062 207.64 145.991C220.549 145.896 226.099 148.24 232.207 157.803V160.983L229.933 161.892L232.207 170.07L229.933 171.887L229.023 174.613C230.716 177.789 231.485 179.434 232.207 181.882C232.207 181.882 232.662 183.245 231.297 185.062C229.933 186.88 228.309 184.369 226.748 185.062C226.919 188.392 226.893 190.309 225.838 194.149L223.108 196.875L215.374 195.512L212.644 202.327Z" stroke="white"/>
</g>
<path d="M244.338 42.3758L243.333 60.2502L230.539 58.9826L244.338 42.3758Z" fill="white"/>
<path d="M260.519 43.9812L243.333 60.2503L244.338 42.3759L260.519 43.9812Z" fill="white"/>
<path d="M230.539 58.9828L252.968 93.59L243.333 60.2504L230.539 58.9828Z" fill="white"/>
<path d="M257.574 61.6818L243.333 60.2501L252.968 93.5898L257.574 61.6818Z" fill="white"/>
<path d="M260.519 43.9811L243.333 60.2502L257.574 61.6819L260.519 43.9811Z" fill="white"/>
<path d="M273.661 45.2844L270.402 62.9542L257.574 61.6819L260.519 43.9811L273.661 45.2844Z" fill="white"/>
<path d="M252.968 93.5899L270.402 62.9543L257.574 61.6819L252.968 93.5899Z" fill="white"/>
<path d="M283.127 64.2172L252.968 93.59L270.402 62.9543L283.127 64.2172Z" fill="white"/>
<path d="M273.661 45.2844L283.127 64.2171L270.402 62.9542L273.661 45.2844Z" fill="white"/>
<path d="M283.474 64.2719C283.478 64.2338 283.476 64.2005 283.469 64.1625C283.467 64.1387 283.474 64.1173 283.467 64.0935C283.463 64.084 283.454 64.0768 283.449 64.0673C283.445 64.0578 283.447 64.0483 283.442 64.0388L273.974 45.1061C273.969 45.0942 273.956 45.0919 273.949 45.08C273.945 45.0728 273.949 45.0633 273.945 45.0562C273.936 45.0419 273.915 45.0443 273.902 45.0324C273.852 44.9777 273.798 44.9468 273.728 44.9302C273.712 44.9278 273.706 44.9087 273.69 44.9064L260.549 43.6031L244.367 42.0002C244.352 41.9979 244.34 42.0145 244.325 42.0145C244.259 42.0169 244.205 42.0359 244.151 42.0716C244.135 42.0811 244.115 42.0763 244.099 42.0882C244.093 42.093 244.095 42.1049 244.088 42.1096C244.081 42.1168 244.07 42.1168 244.063 42.1263L230.264 58.7307C230.257 58.7402 230.255 58.7545 230.248 58.764C230.241 58.7735 230.228 58.7783 230.221 58.7878C230.21 58.8092 230.212 58.833 230.205 58.8544C230.194 58.8877 230.183 58.9186 230.181 58.9542C230.178 58.9875 230.183 59.0161 230.19 59.0494C230.194 59.0732 230.187 59.0969 230.196 59.1183C230.201 59.1326 230.214 59.1397 230.221 59.154C230.228 59.1659 230.226 59.1802 230.232 59.1921L252.66 93.7993C252.673 93.8207 252.694 93.8302 252.709 93.8469C252.718 93.8564 252.718 93.8706 252.727 93.8802L252.736 93.8825C252.745 93.8897 252.754 93.892 252.763 93.8992C252.781 93.9111 252.797 93.9206 252.817 93.9301C252.824 93.9325 252.826 93.9396 252.833 93.942C252.874 93.9562 252.914 93.9634 252.955 93.9634C252.964 93.9634 252.971 93.9634 252.982 93.9634C252.991 93.9634 252.998 93.9539 253.009 93.9515C253.043 93.9467 253.079 93.9444 253.113 93.9277C253.113 93.9277 253.115 93.923 253.119 93.9206C253.14 93.9087 253.153 93.8921 253.169 93.8778C253.176 93.8707 253.187 93.873 253.196 93.8659L253.201 93.8635L283.361 64.4907C283.37 64.4811 283.372 64.4669 283.379 64.4574C283.39 64.4431 283.406 64.4383 283.415 64.4241C283.426 64.405 283.426 64.3789 283.436 64.3575C283.458 64.3313 283.469 64.3051 283.474 64.2719ZM269.801 63.2754L253.595 91.7517L255.747 76.8524L257.878 62.0934L266.324 62.9306L269.801 63.2754ZM257.162 62.0221L252.849 91.8872L243.831 60.6808L257.162 62.0221ZM257.279 61.273L247.004 60.2385L244.183 59.9555L259.987 44.992L257.279 61.273ZM242.998 59.8366L231.271 58.6736L243.917 43.4557L242.998 59.8366ZM270.592 63.3539L282.293 64.5144L254.562 91.5234L270.592 63.3539ZM270.828 62.6166L273.818 46.4094L282.503 63.7748L270.828 62.6166ZM270.112 62.5453L257.993 61.3419L260.812 44.3879L273.23 45.6198L270.112 62.5453ZM243.743 59.3538L244.674 42.7898L259.668 44.2761L243.743 59.3538ZM231.267 59.4323L233.547 59.6582L243.063 60.6023L251.945 91.3379L231.267 59.4323Z" fill="white"/>
<path d="M252.416 94.8552C259.661 95.621 266.612 97.2738 273.217 99.6567C273.825 97.0312 273.949 93.7375 274.147 91.6447C274.528 87.6279 271.752 84.0464 267.946 83.6445L239.297 80.6195C235.492 80.2175 232.098 83.1474 231.717 87.1642C231.526 89.188 231.138 92.4271 231.287 95.1905C238.16 94.2559 245.23 94.0942 252.416 94.8552Z" fill="white"/>
<path d="M231.289 95.1905C238.16 94.2559 245.228 94.0966 252.416 94.8552C259.661 95.621 266.612 97.2738 273.217 99.6568C273.39 98.91 273.521 98.1086 273.629 97.2952C266.903 94.8314 259.812 93.1263 252.419 92.3463C245.228 91.5876 238.155 91.7469 231.282 92.6839C231.251 93.5306 231.246 94.3796 231.289 95.1905Z" fill="white"/>
<path d="M184.685 250.806L174.195 241.55C160.714 256.774 141.835 266.709 120.559 267.85C77.0407 270.183 39.9692 234.841 37.7564 188.912C35.5459 142.982 69.0324 103.856 112.551 101.523C136.913 100.217 159.254 110.718 174.591 128.273L186.375 120.553C168.357 98.7336 141.372 85.5457 111.859 87.1281C60.8078 89.8654 21.5258 135.762 24.1216 189.642C26.7152 243.522 70.2041 284.98 121.253 282.243C146.483 280.89 168.838 268.996 184.685 250.806Z" fill="white"/>
<path d="M252.416 94.8552C201.554 89.4829 156.195 128.647 151.105 182.327C146.015 236.007 183.122 283.88 233.984 289.252C284.846 294.624 330.205 255.461 335.295 201.78C340.386 148.098 303.28 100.225 252.416 94.8552ZM235.345 274.909C191.987 270.331 160.355 229.522 164.692 183.761C169.03 138 207.697 104.615 251.055 109.196C294.414 113.774 326.046 154.583 321.708 200.344C317.37 246.105 278.703 279.49 235.345 274.909Z" fill="white"/>
<path d="M195.158 184.857C195.142 183.951 195.135 183.047 195.092 182.134Z" fill="white"/>
</svg>
