<svg width="934" height="286" viewBox="0 0 934 286" fill="none" xmlns="http://www.w3.org/2000/svg">
<path d="M49.742 239.706C41.174 239.706 33.082 238.119 25.466 234.946C17.85 231.931 11.662 227.251 6.90198 220.904C2.30065 214.557 -2.14968e-05 206.624 -2.14968e-05 197.104C-2.14968e-05 188.853 1.58665 182.427 4.75998 177.826C8.09198 173.225 12.138 169.972 16.898 168.068C21.658 166.164 26.18 165.212 30.464 165.212C26.18 169.813 22.9273 174.891 20.706 180.444C18.4846 185.997 17.374 191.551 17.374 197.104C17.374 202.975 18.6433 208.449 21.182 213.526C23.8793 218.603 27.9253 222.649 33.32 225.664C38.7146 228.837 45.5373 230.424 53.788 230.424C60.928 230.424 67.9093 229.075 74.732 226.378C81.5546 223.839 87.108 220.031 91.392 214.954C95.8346 209.718 98.056 203.292 98.056 195.676C98.056 188.853 96.3106 182.983 92.82 178.064C89.3293 173.145 84.8073 168.782 79.254 164.974C73.8593 161.166 68.068 157.517 61.88 154.026C55.692 150.535 49.8213 146.886 44.268 143.078C38.8733 139.111 34.4306 134.589 30.94 129.512C27.4493 124.435 25.704 118.326 25.704 111.186C25.704 104.522 27.2906 97.5407 30.464 90.242C33.6373 82.9433 38.1593 76.0413 44.03 69.536C50.0593 63.0307 57.1993 57.7947 65.45 53.828C73.8593 49.7027 83.2207 47.64 93.534 47.64C102.895 47.64 109.401 49.9407 113.05 54.542C116.699 58.9847 118.524 64.6173 118.524 71.44C118.524 77.152 117.493 83.34 115.43 90.004C113.526 96.5093 111.146 102.777 108.29 108.806C105.434 114.677 102.737 119.675 100.198 123.8C97.342 123.165 95.2793 121.975 94.01 120.23C92.8993 118.326 92.344 116.105 92.344 113.566C92.344 110.234 93.058 106.426 94.486 102.142C95.914 97.858 97.5006 93.4153 99.246 88.814C101.15 84.2127 102.816 79.77 104.244 75.486C105.672 71.0433 106.386 67.0767 106.386 63.586C106.386 60.4127 105.434 57.9533 103.53 56.208C101.626 54.304 98.1353 53.352 93.058 53.352C85.6007 53.352 78.6987 55.0973 72.352 58.588C66.0053 62.0787 60.452 66.6007 55.692 72.154C50.932 77.5487 47.2033 83.2607 44.506 89.29C41.9673 95.3193 40.698 100.793 40.698 105.712C40.698 111.583 42.364 116.66 45.696 120.944C49.1866 125.069 53.6293 128.877 59.024 132.368C64.4186 135.7 70.1306 139.111 76.16 142.602C82.348 145.934 88.1393 149.663 93.534 153.788C98.9287 157.913 103.292 162.832 106.624 168.544C110.115 174.097 111.86 180.92 111.86 189.012C111.86 197.263 110.035 204.561 106.386 210.908C102.737 217.096 97.818 222.332 91.63 226.616C85.6006 230.9 78.9366 234.153 71.638 236.374C64.3393 238.595 57.0406 239.706 49.742 239.706ZM145.45 226.616C138.627 226.616 133.788 224.474 130.932 220.19C128.076 216.065 126.648 210.987 126.648 204.958C126.648 200.039 127.441 194.962 129.028 189.726C130.614 184.49 132.677 179.571 135.216 174.97C137.913 170.369 140.848 166.64 144.022 163.784C147.354 160.928 150.686 159.5 154.018 159.5C154.811 159.5 155.604 159.659 156.398 159.976C157.35 160.135 158.222 160.373 159.016 160.69C157.588 161.959 155.842 164.339 153.78 167.83C151.876 171.162 150.051 175.049 148.306 179.492C146.56 183.776 145.053 188.06 143.784 192.344C142.673 196.628 142.118 200.277 142.118 203.292C142.118 208.052 142.911 211.543 144.498 213.764C146.084 215.827 148.147 216.858 150.686 216.858C154.018 216.858 157.984 215.113 162.586 211.622C167.187 207.973 171.709 203.371 176.152 197.818C171.709 194.169 168.218 189.409 165.68 183.538C163.3 177.509 162.11 171.4 162.11 165.212C162.11 159.976 162.982 155.057 164.728 150.456C166.632 145.855 169.329 142.205 172.82 139.508C176.31 136.652 180.515 135.224 185.434 135.224C191.939 135.224 196.302 136.969 198.524 140.46C200.745 143.951 201.856 148.314 201.856 153.55C201.856 159.738 200.348 166.64 197.334 174.256C194.319 181.713 190.511 188.933 185.91 195.914C188.766 197.501 191.78 198.294 194.954 198.294C197.492 198.294 200.348 197.818 203.522 196.866C206.695 195.755 209.789 193.931 212.804 191.392C215.977 188.853 218.516 185.442 220.42 181.158L223.276 183.538C220.102 190.995 215.58 196.311 209.71 199.484C203.998 202.499 198.524 204.006 193.288 204.006C191.225 204.006 189.242 203.847 187.338 203.53C185.434 203.054 183.609 202.419 181.864 201.626C176.469 208.766 170.519 214.716 164.014 219.476C157.667 224.236 151.479 226.616 145.45 226.616ZM180.436 191.63C184.402 185.759 187.655 179.651 190.194 173.304C192.891 166.799 194.24 160.69 194.24 154.978C194.24 150.377 193.526 147.045 192.098 144.982C190.828 142.761 189.162 141.65 187.1 141.65C183.926 141.65 180.674 143.951 177.342 148.552C174.01 153.153 172.344 158.945 172.344 165.926C172.344 170.527 172.978 175.208 174.248 179.968C175.676 184.569 177.738 188.457 180.436 191.63ZM233.803 226.14C228.409 226.14 224.045 223.76 220.713 219C217.54 214.081 215.953 208.449 215.953 202.102C215.953 197.501 216.667 192.185 218.095 186.156C219.682 180.127 221.586 174.177 223.807 168.306C226.029 162.435 228.329 157.596 230.709 153.788C233.089 149.98 235.152 148.076 236.897 148.076C237.691 148.076 239.039 148.552 240.943 149.504C242.847 150.297 244.434 151.408 245.703 152.836C243.958 155.533 241.816 159.659 239.277 165.212C236.739 170.765 234.517 176.715 232.613 183.062C230.709 189.409 229.757 195.279 229.757 200.674C229.757 201.943 229.916 203.927 230.233 206.624C230.551 209.163 231.344 211.463 232.613 213.526C233.883 215.589 235.787 216.62 238.325 216.62C241.34 216.62 244.434 215.113 247.607 212.098C250.781 208.925 253.954 204.879 257.127 199.96C260.459 195.041 263.633 189.726 266.647 184.014C269.662 178.302 272.439 172.828 274.977 167.592C277.675 162.356 279.896 157.993 281.641 154.502C282.593 154.661 283.942 154.978 285.687 155.454C287.591 155.93 289.257 156.565 290.685 157.358C292.272 158.151 293.065 159.262 293.065 160.69C293.065 161.325 292.272 163.467 290.685 167.116C289.099 170.607 287.195 174.97 284.973 180.206C282.911 185.283 281.086 190.44 279.499 195.676C277.913 200.912 277.119 205.513 277.119 209.48C277.119 212.336 277.675 214.637 278.785 216.382C280.055 218.127 282.117 219 284.973 219C288.305 219 292.351 217.493 297.111 214.478C301.871 211.463 306.711 207.1 311.629 201.388C316.548 195.517 320.911 188.536 324.719 180.444L327.813 182.586C324.481 191.154 320.118 198.77 314.723 205.434C309.329 211.939 303.617 217.017 297.587 220.666C291.558 224.315 285.687 226.14 279.975 226.14C275.85 226.14 272.518 225.347 269.979 223.76C267.599 222.173 265.854 220.031 264.743 217.334C263.791 214.637 263.315 211.701 263.315 208.528C263.315 206.624 263.474 204.72 263.791 202.816C264.109 200.753 264.505 198.691 264.981 196.628C262.125 201.864 259.031 206.783 255.699 211.384C252.367 215.827 248.877 219.397 245.227 222.094C241.578 224.791 237.77 226.14 233.803 226.14ZM340.065 226.14C333.242 226.14 328.323 223.76 325.309 219C322.453 214.399 321.025 208.607 321.025 201.626C321.025 194.01 322.453 184.966 325.309 174.494C328.165 164.022 331.893 152.995 336.495 141.412C341.255 129.829 346.411 118.564 351.965 107.616C357.518 96.5093 363.071 86.434 368.625 77.39C374.178 68.346 379.255 61.1267 383.857 55.732C388.617 50.3373 392.345 47.64 395.043 47.64C396.788 47.64 398.216 48.6713 399.327 50.734C400.437 52.638 401.31 55.018 401.945 57.874C402.579 60.5713 402.897 63.0307 402.897 65.252C402.897 69.536 401.786 75.1687 399.565 82.15C397.502 88.9727 394.487 96.668 390.521 105.236C386.713 113.645 382.111 122.213 376.717 130.94C371.481 139.508 365.689 147.759 359.343 155.692C353.155 163.625 346.57 170.448 339.589 176.16C338.637 180.444 337.843 184.649 337.209 188.774C336.733 192.741 336.495 196.549 336.495 200.198C336.495 206.386 337.367 210.987 339.113 214.002C340.858 217.017 343.476 218.524 346.967 218.524C351.251 218.524 355.455 216.62 359.581 212.812C363.865 209.004 367.831 204.244 371.481 198.532C375.289 192.661 378.541 186.632 381.239 180.444L384.809 182.348C378.462 195.835 371.56 206.545 364.103 214.478C356.645 222.253 348.633 226.14 340.065 226.14ZM341.731 168.068C347.284 162.515 352.679 156.168 357.915 149.028C363.151 141.729 367.99 134.193 372.433 126.418C377.034 118.643 381.08 111.107 384.571 103.808C388.061 96.5093 390.759 90.004 392.663 84.292C394.567 78.4213 395.519 73.8993 395.519 70.726C395.519 69.1393 395.281 68.108 394.805 67.632C394.487 67.156 394.17 66.918 393.853 66.918C392.583 66.918 390.362 68.9807 387.189 73.106C384.174 77.0727 380.604 82.4673 376.479 89.29C372.353 96.1127 368.149 103.887 363.865 112.614C359.581 121.341 355.455 130.464 351.489 139.984C347.681 149.504 344.428 158.865 341.731 168.068ZM428.679 239.706C417.414 239.706 408.29 236.85 401.309 231.138C394.486 225.585 389.488 218.365 386.315 209.48C383.3 200.595 381.793 191.313 381.793 181.634C381.793 169.099 383.697 156.485 387.505 143.792C391.313 131.099 396.47 119.04 402.975 107.616C409.639 96.0333 417.176 85.7993 425.585 76.914C433.994 67.87 442.8 60.8093 452.003 55.732C461.364 50.496 470.567 47.878 479.611 47.878C486.116 47.878 491.352 49.4647 495.319 52.638C499.444 55.6527 501.507 60.8887 501.507 68.346C501.507 72.9473 500.714 78.1833 499.127 84.054C497.54 89.766 495.398 95.3193 492.701 100.714C490.004 105.95 486.989 110.313 483.657 113.804C480.484 117.295 477.231 119.04 473.899 119.04C472.63 119.04 471.281 118.643 469.853 117.85C468.584 117.057 467.473 115.629 466.521 113.566C468.901 110.869 471.519 107.537 474.375 103.57C477.39 99.4447 480.246 95.1607 482.943 90.718C485.64 86.1167 487.782 81.674 489.369 77.39C491.114 72.9473 491.987 69.06 491.987 65.728C491.987 62.5547 491.035 60.016 489.131 58.112C487.386 56.0493 484.45 55.018 480.325 55.018C473.502 55.018 466.362 57.7947 458.905 63.348C451.606 68.9013 444.466 76.3587 437.485 85.72C430.662 94.9227 424.474 105.236 418.921 116.66C413.368 128.084 408.925 139.746 405.593 151.646C402.42 163.546 400.833 174.891 400.833 185.68C400.833 193.455 401.944 200.912 404.165 208.052C406.386 215.033 409.956 220.666 414.875 224.95C419.952 229.393 426.458 231.614 434.391 231.614C442.8 231.614 451.13 229.234 459.381 224.474C467.79 219.714 475.486 213.447 482.467 205.672C489.448 197.897 495.002 189.488 499.127 180.444L502.459 182.824C497.223 193.137 490.876 202.657 483.419 211.384C475.962 219.952 467.632 226.775 458.429 231.852C449.226 237.088 439.31 239.706 428.679 239.706ZM512.012 226.14C506.618 226.14 502.254 223.76 498.922 219C495.749 214.081 494.162 208.449 494.162 202.102C494.162 197.501 494.876 192.185 496.304 186.156C497.891 180.127 499.795 174.177 502.016 168.306C504.238 162.435 506.538 157.596 508.918 153.788C511.298 149.98 513.361 148.076 515.106 148.076C515.9 148.076 517.248 148.552 519.152 149.504C521.056 150.297 522.643 151.408 523.912 152.836C522.167 155.533 520.025 159.659 517.486 165.212C514.948 170.765 512.726 176.715 510.822 183.062C508.918 189.409 507.966 195.279 507.966 200.674C507.966 201.943 508.125 203.927 508.442 206.624C508.76 209.163 509.553 211.463 510.822 213.526C512.092 215.589 513.996 216.62 516.534 216.62C519.549 216.62 522.643 215.113 525.816 212.098C528.99 208.925 532.163 204.879 535.336 199.96C538.668 195.041 541.842 189.726 544.856 184.014C547.871 178.302 550.648 172.828 553.186 167.592C555.884 162.356 558.105 157.993 559.85 154.502C560.802 154.661 562.151 154.978 563.896 155.454C565.8 155.93 567.466 156.565 568.894 157.358C570.481 158.151 571.274 159.262 571.274 160.69C571.274 161.325 570.481 163.467 568.894 167.116C567.308 170.607 565.404 174.97 563.182 180.206C561.12 185.283 559.295 190.44 557.708 195.676C556.122 200.912 555.328 205.513 555.328 209.48C555.328 212.336 555.884 214.637 556.994 216.382C558.264 218.127 560.326 219 563.182 219C566.514 219 570.56 217.493 575.32 214.478C580.08 211.463 584.92 207.1 589.838 201.388C594.757 195.517 599.12 188.536 602.928 180.444L606.022 182.586C602.69 191.154 598.327 198.77 592.932 205.434C587.538 211.939 581.826 217.017 575.796 220.666C569.767 224.315 563.896 226.14 558.184 226.14C554.059 226.14 550.727 225.347 548.188 223.76C545.808 222.173 544.063 220.031 542.952 217.334C542 214.637 541.524 211.701 541.524 208.528C541.524 206.624 541.683 204.72 542 202.816C542.318 200.753 542.714 198.691 543.19 196.628C540.334 201.864 537.24 206.783 533.908 211.384C530.576 215.827 527.086 219.397 523.436 222.094C519.787 224.791 515.979 226.14 512.012 226.14ZM618.75 229.948C611.927 229.948 606.691 227.965 603.042 223.998C599.392 220.031 597.568 214.161 597.568 206.386C597.568 199.405 598.837 190.837 601.376 180.682C604.073 170.369 607.405 159.817 611.372 149.028C609.785 148.711 608.278 148.473 606.85 148.314C605.422 147.997 604.073 147.6 602.804 147.124V142.84C604.073 142.999 605.58 143.157 607.326 143.316C609.071 143.475 611.054 143.633 613.276 143.792C616.608 135.224 620.178 126.973 623.986 119.04C627.794 110.948 631.522 103.808 635.172 97.62C638.98 91.2733 642.55 86.2753 645.882 82.626C649.372 78.818 652.308 76.914 654.688 76.914C655.957 76.914 657.068 77.39 658.02 78.342C659.13 79.1353 659.686 80.4047 659.686 82.15C659.686 84.8473 658.02 89.29 654.688 95.478C651.356 101.507 647.23 108.727 642.312 117.136C637.393 125.545 632.633 134.669 628.032 144.506C629.46 144.506 630.888 144.506 632.316 144.506C633.902 144.506 635.41 144.506 636.838 144.506C642.074 144.506 647.548 144.427 653.26 144.268C659.13 144.109 665.001 143.713 670.872 143.078V147.362C662.145 148.314 654.291 149.028 647.31 149.504C640.487 149.98 634.378 150.218 628.984 150.218C628.349 150.218 627.714 150.218 627.08 150.218C626.604 150.218 626.048 150.218 625.414 150.218C621.764 158.627 618.67 167.275 616.132 176.16C613.593 185.045 612.324 193.693 612.324 202.102C612.324 208.925 613.355 213.843 615.418 216.858C617.48 219.714 620.892 221.142 625.652 221.142C633.902 221.142 641.994 217.493 649.928 210.194C657.861 202.895 664.842 192.979 670.872 180.444L673.966 182.824C670.158 191.709 665.318 199.722 659.448 206.862C653.736 214.002 647.389 219.635 640.408 223.76C633.426 227.885 626.207 229.948 618.75 229.948Z" fill="white"/>
<path d="M864.514 49.8993L863.757 63.3726L854.113 62.4172L864.514 49.8993Z" fill="white"/>
<path d="M876.711 51.1094L863.757 63.3727L864.514 49.8994L876.711 51.1094Z" fill="white"/>
<path d="M854.113 62.4173L871.02 88.5035L863.757 63.3728L854.113 62.4173Z" fill="white"/>
<path d="M874.491 64.4517L863.757 63.3726L871.02 88.5033L874.491 64.4517Z" fill="white"/>
<path d="M876.711 51.1094L863.757 63.3727L874.491 64.4518L876.711 51.1094Z" fill="white"/>
<path d="M886.617 52.0917L884.161 65.4109L874.491 64.4518L876.711 51.1094L886.617 52.0917Z" fill="white"/>
<path d="M871.019 88.5035L884.161 65.4109L874.491 64.4519L871.019 88.5035Z" fill="white"/>
<path d="M893.752 66.3629L871.019 88.5035L884.161 65.411L893.752 66.3629Z" fill="white"/>
<path d="M886.617 52.0917L893.752 66.3628L884.161 65.4109L886.617 52.0917Z" fill="white"/>
<path d="M894.014 66.4041C894.017 66.3754 894.016 66.3503 894.01 66.3216C894.009 66.3037 894.014 66.2876 894.009 66.2696C894.005 66.2625 893.999 66.2571 893.995 66.2499C893.992 66.2428 893.993 66.2356 893.99 66.2284L886.853 51.9574C886.85 51.9484 886.839 51.9466 886.834 51.9376C886.831 51.9323 886.834 51.9251 886.831 51.9197C886.824 51.909 886.809 51.9108 886.799 51.9018C886.761 51.8606 886.721 51.8373 886.668 51.8247C886.656 51.8229 886.651 51.8086 886.639 51.8068L876.733 50.8244L864.536 49.6162C864.524 49.6144 864.516 49.627 864.504 49.627C864.455 49.6287 864.414 49.6431 864.373 49.67C864.361 49.6772 864.346 49.6736 864.334 49.6825C864.329 49.6861 864.331 49.6951 864.326 49.6987C864.321 49.704 864.312 49.704 864.307 49.7112L853.905 62.2273C853.9 62.2344 853.899 62.2452 853.894 62.2524C853.888 62.2595 853.878 62.2631 853.873 62.2703C853.865 62.2864 853.866 62.3044 853.861 62.3205C853.853 62.3456 853.844 62.3689 853.843 62.3958C853.841 62.4209 853.844 62.4424 853.849 62.4675C853.853 62.4854 853.848 62.5033 853.855 62.5195C853.858 62.5302 853.868 62.5356 853.873 62.5464C853.878 62.5553 853.877 62.5661 853.882 62.575L870.787 88.6612C870.797 88.6774 870.812 88.6846 870.824 88.6971C870.831 88.7043 870.831 88.715 870.838 88.7222L870.845 88.724C870.851 88.7294 870.858 88.7312 870.865 88.7365C870.879 88.7455 870.89 88.7527 870.906 88.7598C870.911 88.7616 870.913 88.767 870.918 88.7688C870.948 88.7796 870.979 88.7849 871.009 88.7849C871.016 88.7849 871.021 88.7849 871.03 88.7849C871.037 88.7849 871.042 88.7778 871.05 88.776C871.076 88.7724 871.103 88.7706 871.128 88.7581C871.128 88.7581 871.13 88.7545 871.133 88.7527C871.149 88.7437 871.159 88.7312 871.171 88.7204C871.176 88.715 871.184 88.7168 871.191 88.7114L871.195 88.7097L893.929 66.569C893.936 66.5618 893.937 66.5511 893.943 66.5439C893.951 66.5332 893.963 66.5296 893.97 66.5188C893.978 66.5045 893.978 66.4848 893.985 66.4686C894.002 66.4489 894.01 66.4292 894.014 66.4041ZM883.707 65.653L871.492 87.1178L873.114 75.887L874.721 64.762L881.087 65.3931L883.707 65.653ZM874.18 64.7083L870.93 87.22L864.132 63.6972L874.18 64.7083ZM874.269 64.1436L866.524 63.3638L864.397 63.1505L876.31 51.8713L874.269 64.1436ZM863.504 63.0609L854.665 62.1843L864.197 50.7133L863.504 63.0609ZM884.304 65.7121L893.124 66.5869L872.22 86.9457L884.304 65.7121ZM884.482 65.1564L886.736 52.9397L893.282 66.0294L884.482 65.1564ZM883.942 65.1026L874.807 64.1956L876.932 51.416L886.292 52.3446L883.942 65.1026ZM864.066 62.6969L864.767 50.2114L876.069 51.3317L864.066 62.6969ZM854.661 62.7561L856.38 62.9264L863.553 63.6381L870.248 86.8059L854.661 62.7561Z" fill="white"/>
<path d="M870.603 89.4572C876.064 90.0344 881.304 91.2803 886.282 93.0765C886.741 91.0974 886.834 88.6146 886.984 87.0371C887.271 84.0094 885.178 81.3097 882.31 81.0068L860.715 78.7266C857.846 78.4236 855.288 80.6321 855.001 83.6598C854.857 85.1854 854.564 87.6269 854.677 89.7099C859.857 89.0054 865.187 88.8835 870.603 89.4572Z" fill="white"/>
<path d="M854.678 89.71C859.857 89.0055 865.185 88.8854 870.603 89.4572C876.064 90.0344 881.304 91.2803 886.282 93.0765C886.413 92.5136 886.512 91.9095 886.593 91.2964C881.523 89.4393 876.178 88.154 870.605 87.566C865.185 86.9941 859.854 87.1142 854.673 87.8205C854.649 88.4587 854.646 89.0987 854.678 89.71Z" fill="white"/>
<path d="M819.549 212.372L811.642 205.395C801.48 216.87 787.25 224.359 771.212 225.219C738.409 226.978 710.465 200.338 708.797 165.717C707.131 131.096 732.372 101.604 765.176 99.8454C783.539 98.861 800.38 106.776 811.94 120.009L820.823 114.19C807.241 97.7426 786.9 87.8019 764.654 88.9947C726.173 91.058 696.563 125.654 698.52 166.267C700.475 206.881 733.256 238.132 771.735 236.068C790.753 235.049 807.604 226.083 819.549 212.372Z" fill="white"/>
<path d="M870.603 89.4572C832.265 85.4076 798.074 114.928 794.237 155.391C790.4 195.855 818.371 231.94 856.71 235.989C895.048 240.039 929.239 210.518 933.076 170.055C936.913 129.59 908.944 93.5049 870.603 89.4572ZM857.735 225.178C825.053 221.727 801.209 190.966 804.479 156.472C807.749 121.979 836.895 96.8141 869.577 100.267C902.26 103.717 926.104 134.479 922.834 168.972C919.564 203.466 890.418 228.631 857.735 225.178Z" fill="white"/>
<path d="M827.443 157.299C827.431 156.616 827.426 155.935 827.393 155.246Z" fill="white"/>
<mask id="mask0_3_608" style="mask-type:alpha" maskUnits="userSpaceOnUse" x="806" y="102" width="115" height="121">
<path d="M920.428 162.5C920.428 195.913 894.908 223 863.428 223C831.948 223 806.428 195.913 806.428 162.5C806.428 129.087 831.948 102 863.428 102C894.908 102 920.428 129.087 920.428 162.5Z" fill="#D9D9D9"/>
</mask>
<g mask="url(#mask0_3_608)">
<path d="M871.483 222.264C866.987 224.255 864.185 225.467 861.298 227.689C868.373 228.369 872.799 227.941 881.169 226.333C881.169 226.333 882.33 223.898 882.882 222.266C884.589 217.221 883.855 214.016 884.252 208.711C884.678 203.029 886.359 199.659 884.937 194.138C884.183 191.208 883.278 189.697 881.854 187.021C880.453 184.39 877.743 180.582 877.743 180.582V175.838C877.743 175.838 882.862 175.008 884.937 172.788C886.359 171.267 886.808 170.048 887.335 168.043C887.976 165.61 885.721 162.365 886.261 159.908C887.441 154.543 890.03 169.736 890.372 175.158L892.132 218.538L895.215 219.555C895.215 219.555 890.372 167.363 891.058 165.669C891.743 163.974 904.465 211.761 904.465 211.761L907.548 210.744L894.826 173.802C894.826 173.802 892.085 167.363 893.456 166.347C894.826 165.33 913.372 201.594 913.372 201.594L915.428 200.577C915.428 200.577 910.243 190.408 907.159 184.308C903.067 176.212 895.169 164.652 895.169 164.652L888.706 155.165C889.385 151.772 887.335 148.726 886.308 147.71C885.28 146.693 883.452 145.878 880.141 146.015C876.83 146.153 878.546 148.116 877.058 148.726C874.681 149.702 873.117 147.552 870.548 147.71C865.529 148.017 861.62 149.426 859.243 153.81C857.468 157.084 858.558 163.299 858.558 163.299C857.872 165.669 856.456 167.025 855.428 168.719C855.428 168.719 857.872 169.736 857.872 171.093C857.872 173.608 856.075 175.754 857.872 177.532C859.67 179.31 864.382 177.532 864.382 177.532C866.888 183.011 867.025 186.278 865.067 192.444L856.502 201.594V204.644C860.22 201.924 864.293 201.324 870.159 201.594C872.454 209.659 872.335 214.184 871.483 222.264Z" fill="white" stroke="white"/>
<path d="M853.656 214.987C854.534 220.204 857.428 228 857.428 228L847.483 226.288L830.336 216.699L815.933 201.288L811.474 189.645C811.474 189.645 811.096 182.949 812.503 179.028C813.434 176.436 814.167 174.972 815.933 172.864C817.698 170.756 821.42 168.755 821.42 168.755C821.42 168.755 822.34 166.154 824.163 164.303C826.935 165.565 828.359 166.444 830.336 168.755L830.477 168.926C833.287 172.326 834.905 174.285 837.538 178.343C841.56 184.294 843.194 187.477 845.768 193.069C844.807 187.192 843.977 183.968 841.996 178.343C841.996 178.343 839.763 178.256 838.909 177.316C837.74 176.028 837.833 174.23 838.909 172.864C840.114 171.336 843.06 173.851 842.928 174C842.928 174 843.442 174.719 843.428 175.5C843.416 176.21 843.368 177.316 843.368 177.316C847.512 184.224 849.201 188.285 851.255 195.809V201.288H852.97C852.97 201.288 852.766 209.704 853.656 214.987Z" fill="white"/>
<path d="M840.624 170.467C835.784 165.758 832.798 163.325 825.878 160.193L826.907 156.426V151.974L824.163 144.783C823.124 138.455 827.194 130.322 828.621 131.084C831.315 130.238 833.116 129.563 836.852 128.002C846.583 127.93 850.766 129.697 855.37 136.906V139.303L853.656 139.988L855.37 146.152L853.656 147.522L852.97 149.577C854.246 151.971 854.825 153.211 855.37 155.056C855.37 155.056 855.713 156.084 854.684 157.454C853.656 158.823 852.432 156.931 851.255 157.454C851.384 159.963 851.365 161.409 850.569 164.303L848.512 166.357L842.682 165.33L840.624 170.467Z" fill="white"/>
<path d="M853.656 214.987C854.534 220.204 857.428 228 857.428 228L847.483 226.288L830.336 216.699L815.933 201.288L811.474 189.645C811.474 189.645 811.096 182.949 812.503 179.028C813.434 176.436 814.167 174.972 815.933 172.864C817.698 170.756 821.42 168.755 821.42 168.755C821.42 168.755 822.34 166.154 824.163 164.303C826.935 165.565 828.359 166.444 830.336 168.755L830.477 168.926C833.287 172.326 834.905 174.285 837.538 178.343C841.56 184.294 843.194 187.477 845.768 193.069C844.807 187.192 843.977 183.968 841.996 178.343C841.996 178.343 839.763 178.256 838.909 177.316C837.74 176.028 837.833 174.23 838.909 172.864C840.114 171.336 843.06 173.851 842.928 174C842.928 174 843.442 174.719 843.428 175.5C843.416 176.21 843.368 177.316 843.368 177.316C847.512 184.224 849.201 188.285 851.255 195.809V201.288H852.97C852.97 201.288 852.766 209.704 853.656 214.987Z" stroke="white"/>
<path d="M840.624 170.467C835.784 165.758 832.798 163.325 825.878 160.193L826.907 156.426V151.974L824.163 144.783C823.124 138.455 827.194 130.322 828.621 131.084C831.315 130.238 833.116 129.563 836.852 128.002C846.583 127.93 850.766 129.697 855.37 136.906V139.303L853.656 139.988L855.37 146.152L853.656 147.522L852.97 149.577C854.246 151.971 854.825 153.211 855.37 155.056C855.37 155.056 855.713 156.084 854.684 157.454C853.656 158.823 852.432 156.931 851.255 157.454C851.384 159.963 851.365 161.409 850.569 164.303L848.512 166.357L842.682 165.33L840.624 170.467Z" stroke="white"/>
</g>
</svg>
